<svg width="22" height="10" viewBox="0 0 22 10" fill="none" xmlns="http://www.w3.org/2000/svg">
<path fill-rule="evenodd" clip-rule="evenodd" d="M1.39998 0.199997C1.1878 0.199997 0.984319 0.256187 0.83429 0.356207C0.684261 0.456226 0.599976 0.591881 0.599976 0.73333C0.599976 0.874779 0.684261 1.01043 0.83429 1.11045C0.984319 1.21047 1.1878 1.26666 1.39998 1.26666H20.6C20.8121 1.26666 21.0156 1.21047 21.1657 1.11045C21.3157 1.01043 21.4 0.874779 21.4 0.73333C21.4 0.591881 21.3157 0.456226 21.1657 0.356207C21.0156 0.256187 20.8121 0.199997 20.6 0.199997H1.39998ZM0.599976 5C0.599976 4.85855 0.684261 4.72289 0.83429 4.62287C0.984319 4.52285 1.1878 4.46666 1.39998 4.46666H20.6C20.8121 4.46666 21.0156 4.52285 21.1657 4.62287C21.3157 4.72289 21.4 4.85855 21.4 5C21.4 5.14145 21.3157 5.2771 21.1657 5.37712C21.0156 5.47714 20.8121 5.53333 20.6 5.53333H1.39998C1.1878 5.53333 0.984319 5.47714 0.83429 5.37712C0.684261 5.2771 0.599976 5.14145 0.599976 5ZM0.599976 9.26666C0.599976 9.12521 0.684261 8.98956 0.83429 8.88954C0.984319 8.78952 1.1878 8.73333 1.39998 8.73333H20.6C20.8121 8.73333 21.0156 8.78952 21.1657 8.88954C21.3157 8.98956 21.4 9.12521 21.4 9.26666C21.4 9.40811 21.3157 9.54377 21.1657 9.64379C21.0156 9.74381 20.8121 9.8 20.6 9.8H1.39998C1.1878 9.8 0.984319 9.74381 0.83429 9.64379C0.684261 9.54377 0.599976 9.40811 0.599976 9.26666Z" fill="black"/>
</svg>
