<svg width="21" height="19" viewBox="0 0 21 19" fill="none" xmlns="http://www.w3.org/2000/svg">
<path d="M16 7C16.7702 6.99962 17.5242 7.22161 18.1713 7.63932C18.8184 8.05702 19.3311 8.65267 19.6479 9.35471C19.9648 10.0568 20.0721 10.8353 19.9572 11.5969C19.8423 12.3585 19.5099 13.0707 19 13.648V18.248C19.0003 18.3764 18.9675 18.5027 18.905 18.6149C18.8424 18.727 18.7521 18.8212 18.6427 18.8884C18.5334 18.9557 18.4085 18.9937 18.2802 18.9989C18.1519 19.0041 18.0245 18.9762 17.91 18.918L17.82 18.863L16 17.591L14.18 18.863C14.0749 18.9364 13.9527 18.9816 13.8252 18.9944C13.6976 19.0071 13.5689 18.9869 13.4514 18.9358C13.3338 18.8846 13.2313 18.8042 13.1537 18.7022C13.0761 18.6002 13.0259 18.4799 13.008 18.353L13.001 18.248V13.646C12.4918 13.0687 12.16 12.3568 12.0454 11.5956C11.9308 10.8345 12.0382 10.0564 12.3548 9.35476C12.6714 8.65313 13.1837 8.05776 13.8303 7.64008C14.4769 7.2224 15.2302 7.00015 16 7ZM17.5 14.71C17.0234 14.9027 16.5141 15.0015 16 15.001C15.4859 15.0015 14.9766 14.9027 14.5 14.71V16.809L15.571 16.062C15.6806 15.9852 15.8089 15.9391 15.9423 15.9285C16.0758 15.918 16.2096 15.9433 16.33 16.002L16.43 16.062L17.5 16.809V14.71ZM17.25 0.00399971C17.9503 0.00396497 18.6242 0.271092 19.1343 0.750893C19.6444 1.23069 19.9522 1.88702 19.995 2.586L20 2.754L20.001 8C19.5955 7.46009 19.0853 7.00742 18.501 6.669L18.5 2.754C18.5001 2.44454 18.3855 2.14603 18.1782 1.91623C17.971 1.68644 17.6858 1.54169 17.378 1.51L17.25 1.504H2.75C2.44054 1.50386 2.14203 1.61851 1.91223 1.82577C1.68244 2.03303 1.53769 2.31817 1.506 2.626L1.5 2.754V12.254C1.5 12.901 1.992 13.434 2.622 13.497L2.75 13.504L11.672 13.505L11.795 13.708L11.929 13.904L12 13.998L11.999 15.004H2.75C2.04955 15.004 1.37549 14.7368 0.865376 14.2567C0.35526 13.7767 0.0475365 13.1202 0.00500012 12.421L3.38855e-09 12.254V2.754C-3.47392e-05 2.05371 0.267092 1.37979 0.746893 0.869702C1.22669 0.359612 1.88302 0.051781 2.582 0.00899983L2.75 0.00399971H17.25ZM16 8.5C15.3368 8.5 14.7008 8.76344 14.2319 9.23238C13.7629 9.70131 13.4995 10.3373 13.4995 11.0005C13.4995 11.6637 13.7629 12.2997 14.2319 12.7686C14.7008 13.2376 15.3368 13.501 16 13.501C16.6632 13.501 17.2992 13.2376 17.7681 12.7686C18.2371 12.2997 18.5005 11.6637 18.5005 11.0005C18.5005 10.3373 18.2371 9.70131 17.7681 9.23238C17.2992 8.76344 16.6632 8.5 16 8.5ZM9.25 9.5C9.44002 9.50006 9.62294 9.57224 9.76179 9.70197C9.90064 9.8317 9.98507 10.0093 9.99803 10.1989C10.011 10.3885 9.95148 10.5759 9.83157 10.7233C9.71165 10.8707 9.54025 10.9671 9.352 10.993L9.25 11H4.75C4.55998 10.9999 4.37706 10.9278 4.23821 10.798C4.09936 10.6683 4.01493 10.4907 4.00197 10.3011C3.98902 10.1115 4.04852 9.92411 4.16843 9.7767C4.28835 9.62929 4.45975 9.5329 4.648 9.507L4.75 9.5H9.25ZM15.25 4C15.44 4.00006 15.6229 4.07224 15.7618 4.20197C15.9006 4.3317 15.9851 4.5093 15.998 4.69888C16.011 4.88846 15.9515 5.07589 15.8316 5.2233C15.7117 5.37071 15.5402 5.4671 15.352 5.493L15.25 5.5H4.75C4.55998 5.49994 4.37706 5.42776 4.23821 5.29803C4.09936 5.1683 4.01493 4.9907 4.00197 4.80112C3.98902 4.61154 4.04852 4.42411 4.16843 4.2767C4.28835 4.12929 4.45975 4.0329 4.648 4.007L4.75 4H15.25Z" fill="#333333"/>
</svg>
