<svg width="72" height="48" viewBox="0 0 72 48" fill="none" xmlns="http://www.w3.org/2000/svg">
<path d="M72 0H0V48H52.9565L72 0Z" fill="#333333"/>
<path fill-rule="evenodd" clip-rule="evenodd" d="M17.9231 16C17.6783 16 17.4435 16.0937 17.2704 16.2603C17.0973 16.427 17 16.6531 17 16.8889C17 17.1246 17.0973 17.3507 17.2704 17.5174C17.4435 17.6841 17.6783 17.7778 17.9231 17.7778H40.0769C40.3217 17.7778 40.5565 17.6841 40.7296 17.5174C40.9027 17.3507 41 17.1246 41 16.8889C41 16.6531 40.9027 16.427 40.7296 16.2603C40.5565 16.0937 40.3217 16 40.0769 16H17.9231ZM17 24C17 23.7642 17.0973 23.5382 17.2704 23.3715C17.4435 23.2048 17.6783 23.1111 17.9231 23.1111H40.0769C40.3217 23.1111 40.5565 23.2048 40.7296 23.3715C40.9027 23.5382 41 23.7642 41 24C41 24.2358 40.9027 24.4618 40.7296 24.6285C40.5565 24.7952 40.3217 24.8889 40.0769 24.8889H17.9231C17.6783 24.8889 17.4435 24.7952 17.2704 24.6285C17.0973 24.4618 17 24.2358 17 24ZM17 31.1111C17 30.8754 17.0973 30.6493 17.2704 30.4826C17.4435 30.3159 17.6783 30.2222 17.9231 30.2222H40.0769C40.3217 30.2222 40.5565 30.3159 40.7296 30.4826C40.9027 30.6493 41 30.8754 41 31.1111C41 31.3469 40.9027 31.573 40.7296 31.7397C40.5565 31.9064 40.3217 32 40.0769 32H17.9231C17.6783 32 17.4435 31.9064 17.2704 31.7397C17.0973 31.573 17 31.3469 17 31.1111Z" fill="white"/>
</svg>
