<svg width="24" height="24" viewBox="0 0 24 24" fill="none" xmlns="http://www.w3.org/2000/svg">
<path d="M3.5 18.5H10V19H3.5V18.5Z" fill="white" stroke="#333333"/>
<path d="M3.5 14H10V14.5H3.5V14Z" fill="white" stroke="#333333"/>
<path d="M4.5 4H4V4.5V9V9.5H4.5H19.5H20V9V4.5V4H19.5H4.5ZM20.2071 9.70711L20.5607 10.0607L20.2071 9.70711C20.0196 9.89464 19.7652 10 19.5 10H4.5C4.23478 10 3.98043 9.89464 3.79289 9.70711C3.60536 9.51957 3.5 9.26522 3.5 9V4.5C3.5 4.23478 3.60536 3.98043 3.79289 3.79289C3.98043 3.60536 4.23478 3.5 4.5 3.5H19.5C19.7652 3.5 20.0196 3.60536 20.2071 3.79289C20.3946 3.98043 20.5 4.23478 20.5 4.5V9C20.5 9.26522 20.3946 9.51957 20.2071 9.70711Z" fill="white" stroke="#333333"/>
<path d="M15 14.5H14.5V15V19.5V20H15H19.5H20V19.5V15V14.5H19.5H15ZM19.5 20.5H15C14.7348 20.5 14.4804 20.3946 14.2929 20.2071C14.1054 20.0196 14 19.7652 14 19.5V15C14 14.7348 14.1054 14.4804 14.2929 14.2929C14.4804 14.1054 14.7348 14 15 14H19.5C19.7652 14 20.0196 14.1054 20.2071 14.2929C20.3946 14.4804 20.5 14.7348 20.5 15V19.5C20.5 19.7652 20.3946 20.0196 20.2071 20.2071C20.0196 20.3946 19.7652 20.5 19.5 20.5Z" fill="white" stroke="#333333"/>
</svg>
