<svg width="96" height="96" viewBox="0 0 96 96" fill="none" xmlns="http://www.w3.org/2000/svg">
<g clip-path="url(#clip0)">
<path d="M47.2687 19.7674C46.3127 14.1424 41.7564 8.51741 34.6687 4.41134C22.7437 -2.11366 13.4061 0.0238444 8.84981 1.87991C3.45019 4.18634 1.3125 7.33634 1.03144 7.67384L0 9.02366L0.8625 10.4862C0.975187 10.5988 2.55 13.7488 5.86875 17.4047C15.4873 28.1487 25.1625 32.4233 39.8436 32.4797C39.6187 32.0299 39.3934 31.5799 39.1123 31.1862C35.1748 24.8299 28.7062 19.5987 20.8873 16.4487L23.0248 11.2174C31.9125 14.8174 39.3375 20.836 43.8373 28.1487C44.1748 28.711 44.5123 29.2735 44.8498 29.8362C47.0439 26.6863 47.8311 23.2551 47.2687 19.7674Z" fill="white"/>
<path d="M95.1561 7.67387C88.8752 0.135429 75.6619 -3.43495 61.2748 4.46762C54.2438 8.51743 49.6875 14.1424 48.7313 19.7674C48.1689 23.2553 48.9561 26.6864 51.15 29.8364C51.4875 29.2737 51.825 28.7114 52.1625 28.1489C56.6625 20.8362 64.0875 14.8176 72.975 11.2176L75.1125 16.4489C67.2938 19.5989 60.8252 24.8301 56.9439 31.1301C56.6625 31.5803 56.3813 32.0303 56.1564 32.4801C70.8377 32.4239 80.5129 28.1491 90.1313 17.4051C93.4502 13.7491 95.2125 10.5991 95.325 10.4866L96 9.02405L95.1561 7.67387Z" fill="white"/>
<path d="M96 96.001H0V93.001C0 79.5072 13.6779 69.9147 26.2937 74.445C30.8284 66.8453 39.0763 62.0635 48 62.0635C56.9237 62.0635 65.1716 66.8453 69.7063 74.445C82.317 69.9164 96 79.5027 96 93.001V96.001Z" fill="white"/>
<path d="M56.1562 32.48C52.725 38.3862 50.9814 45.6427 50.8125 54.0802V56.3863C49.8564 56.274 48.9561 56.2177 48 56.2177C47.0439 56.2177 46.1436 56.274 45.1875 56.3863V54.0802C45.0186 45.5864 43.2748 38.3302 39.8438 32.48C39.8438 32.48 44.5127 30.3987 44.85 29.8364C46.0873 32.0302 47.1561 34.3364 48 36.8114C48.8439 34.3364 49.9127 31.9739 51.15 29.8364C51.4875 30.3987 56.1562 32.48 56.1562 32.48Z" fill="white"/>
</g>
<defs>
<clipPath id="clip0">
<rect width="96" height="96" fill="white" transform="translate(0 0.000976562)"/>
</clipPath>
</defs>
</svg>
