<svg width="96" height="96" viewBox="0 0 96 96" fill="none" xmlns="http://www.w3.org/2000/svg">
<path d="M26.3529 22.5009H69.6471C71.2064 22.5009 72.4706 21.2416 72.4706 19.6884V2.81335C72.4706 1.2601 71.2064 0.000854492 69.6471 0.000854492H26.3529C24.7936 0.000854492 23.5294 1.2601 23.5294 2.81335V19.6884C23.5294 21.2416 24.7936 22.5009 26.3529 22.5009ZM32 8.43835H64C65.5593 8.43835 66.8235 9.6976 66.8235 11.2509C66.8235 12.8041 65.5593 14.0634 64 14.0634H32C30.4407 14.0634 29.1765 12.8041 29.1765 11.2509C29.1765 9.6976 30.4407 8.43835 32 8.43835Z" fill="white"/>
<path d="M58.3529 67.876H75.2941V79.126H58.3529V67.876Z" fill="white"/>
<path d="M78.4941 51.353C76.1126 54.3343 72.4426 56.2509 68.3294 56.2509C64.2163 56.2509 60.5463 54.3343 58.1647 51.353C55.7832 54.3343 52.1132 56.2509 48 56.2509C43.8869 56.2509 40.2169 54.3343 37.8353 51.353C35.4538 54.3343 31.7838 56.2509 27.6706 56.2509C23.5575 56.2509 19.8875 54.3343 17.5059 51.353C15.1244 54.3343 11.4543 56.2509 7.34121 56.2509C6.76672 56.2509 6.20201 56.2097 5.64709 56.1373V93.1884C5.64709 94.7417 6.91128 96.0009 8.47062 96.0009H15.0589V65.0634C15.0589 63.5102 16.323 62.2509 17.8824 62.2509H40.4706C42.03 62.2509 43.2942 63.5102 43.2942 65.0634V96.0009H87.5294C89.0888 96.0009 90.353 94.7417 90.353 93.1884V56.1373C89.7981 56.2097 89.2333 56.2509 88.6589 56.2509C84.5457 56.2509 80.8757 54.3343 78.4941 51.353ZM80.9412 81.9384C80.9412 83.4917 79.677 84.7509 78.1177 84.7509H55.5294C53.9701 84.7509 52.7059 83.4917 52.7059 81.9384V65.0634C52.7059 63.5102 53.9701 62.2509 55.5294 62.2509H78.1177C79.677 62.2509 80.9412 63.5102 80.9412 65.0634V81.9384Z" fill="white"/>
<path d="M20.7058 96.001H37.647V67.876H20.7058V96.001ZM28.2352 78.1885C28.2352 76.6352 29.4994 75.376 31.0588 75.376C32.6181 75.376 33.8823 76.6352 33.8823 78.1885V81.9385C33.8823 83.4917 32.6181 84.751 31.0588 84.751C29.4994 84.751 28.2352 83.4917 28.2352 81.9385V78.1885Z" fill="white"/>
<path d="M27.6705 50.6259C31.7249 50.6259 35.0117 47.3519 35.0117 43.3134V39.3759H20.3293V43.3134C20.3293 47.3519 23.6161 50.6259 27.6705 50.6259Z" fill="white"/>
<path d="M48 50.6259C52.0544 50.6259 55.3412 47.3519 55.3412 43.3134V39.3759H40.6588V43.3134C40.6588 47.3519 43.9456 50.6259 48 50.6259Z" fill="white"/>
<path d="M68.3295 50.6259C72.3839 50.6259 75.6706 47.3519 75.6706 43.3134V39.3759H60.9883V43.3134C60.9883 47.3519 64.2751 50.6259 68.3295 50.6259Z" fill="white"/>
<path d="M7.34118 50.6259C11.3956 50.6259 14.6824 47.3519 14.6824 43.3134V39.3759H0V43.3134C0 47.3519 3.28678 50.6259 7.34118 50.6259Z" fill="white"/>
<path d="M81.3176 39.3759V43.3134C81.3176 47.3519 84.6044 50.6259 88.6588 50.6259C92.7132 50.6259 96 47.3519 96 43.3134V39.3759H81.3176Z" fill="white"/>
<path d="M88.2686 16.7688C87.8398 15.701 86.8017 15.0009 85.647 15.0009H78.1176V19.6884C78.1176 24.3408 74.3177 28.1259 69.647 28.1259H26.3529C21.6822 28.1259 17.8823 24.3408 17.8823 19.6884V15.0009H10.3529C9.19829 15.0009 8.16018 15.701 7.73138 16.7688L0.911987 33.7509H95.0882L88.2686 16.7688Z" fill="white"/>
</svg>
