<svg width="96" height="96" viewBox="0 0 96 96" fill="none" xmlns="http://www.w3.org/2000/svg">
<g clip-path="url(#clip0)">
<path d="M69.2835 21.7108H26.7165C21.1304 25.7351 17.6609 31.3253 17.6609 37.4981V96.0009H78.3391V37.4981C78.3391 31.3254 74.8699 25.7351 69.2835 21.7108ZM60.678 83.0903H35.3222V77.4653H60.678V83.0903ZM60.678 70.1796H35.3222V38.733H60.678V70.1796Z" fill="white"/>
<path d="M43.0166 44.358H52.9831V64.5546H43.0166V44.358Z" fill="white"/>
<path d="M70.6445 2.70735V6.90848H60.678V0.000976562H35.3222V7.04666C15.523 8.46435 0 20.7027 0 35.5425V41.998H7.69469V35.5425C7.69469 23.8075 19.7751 14.097 35.3222 12.7056V16.0859H60.678V12.5335H70.6445V16.7348L96 19.4267V0.0152266L70.6445 2.70735Z" fill="white"/>
</g>
<defs>
<clipPath id="clip0">
<rect width="96" height="96" fill="white" transform="translate(0 0.000976562)"/>
</clipPath>
</defs>
</svg>
