<svg width="96" height="96" viewBox="0 0 96 96" fill="none" xmlns="http://www.w3.org/2000/svg">
<g clip-path="url(#clip0)">
<path d="M13.9216 84.7041H19.5939V96.001H13.9216V84.7041Z" fill="white"/>
<path d="M53.4373 84.7041H59.1095V96.001H53.4373V84.7041Z" fill="white"/>
<path d="M8.29669 79.0792H25.2189V96.001H33.1875V59.2981L25.5 57.3762V39.5168H7.5V52.8762L0 51.0012V96.0008H8.29669V79.0792ZM19.5936 67.7823H25.2186V73.4073H19.5936V67.7823ZM8.29669 67.7823H13.9217V73.4073H8.29669V67.7823Z" fill="white"/>
<path d="M47.9998 14.8141H59.9999V33.8918H47.9998V14.8141Z" fill="white"/>
<path d="M10.5 14.8141H22.5002V33.8918H10.5V14.8141Z" fill="white"/>
<path d="M47.9998 0.0012207H59.9999V9.1891H47.9998V0.0012207Z" fill="white"/>
<path d="M72 60.0006L62.9998 57.7506V39.5166H44.9998V53.251L38.8123 51.7043V96.0008H47.8123V79.0789H64.7345V96.0008H96V60.001L72 60.0006ZM53.4373 73.4072H47.8123V67.7822H53.4373V73.4072ZM64.7342 73.4072H59.1091V67.7822H64.7342V73.4072ZM76.0312 84.7039H70.4062V79.0789H76.0312V84.7039ZM76.0312 73.4072H70.4062V67.7822H76.0312V73.4072ZM87.3283 84.7039H81.7033V79.0789H87.3283V84.7039ZM87.3283 73.4072H81.7033V67.7822H87.3283V73.4072Z" fill="white"/>
<path d="M10.5 0.0012207H22.5002V9.1891H10.5V0.0012207Z" fill="white"/>
</g>
<defs>
<clipPath id="clip0">
<rect width="96" height="96" fill="white" transform="translate(0 0.000976562)"/>
</clipPath>
</defs>
</svg>
