<svg width="96" height="96" viewBox="0 0 96 96" fill="none" xmlns="http://www.w3.org/2000/svg">
<g clip-path="url(#clip0)">
<path d="M71.4893 66.001C71.4893 67.5518 72.8637 68.8135 74.5531 68.8135H77.6169V63.1885H74.5531C72.8637 63.1885 71.4893 64.4502 71.4893 66.001Z" fill="white"/>
<path d="M68.4257 16.876H27.5747C23.5805 16.876 20.1749 19.2274 18.9102 22.501H77.0903C75.8255 19.2274 72.4199 16.876 68.4257 16.876Z" fill="white"/>
<path d="M18.3831 28.126H44.9362V45.376H18.3831V28.126Z" fill="white"/>
<path d="M51.0637 28.126H77.6169V45.376H51.0637V28.126Z" fill="white"/>
<path d="M24.5107 66.001C24.5107 64.4502 23.1363 63.1885 21.4469 63.1885H18.3831V68.8135H21.4469C23.1363 68.8135 24.5107 67.5518 24.5107 66.001Z" fill="white"/>
<path d="M18.3829 57.5635H21.4468C26.515 57.5635 30.6383 61.3485 30.6383 66.001C30.6383 70.6534 26.515 74.4385 21.4468 74.4385H18.3829V75.376C18.3829 78.0713 20.4486 80.3228 23.2058 80.872L18.578 92.2001C17.9838 93.6546 18.7866 95.2757 20.371 95.8211C21.9554 96.3664 23.7214 95.6297 24.3153 94.1753L25.1017 92.2502H70.8978L71.6842 94.1753C72.2784 95.6297 74.0444 96.3666 75.6286 95.8211C77.213 95.2757 78.0157 93.6546 77.4215 92.2001L72.7939 80.8718C75.5514 80.3228 77.617 78.0713 77.617 75.376V74.4385H74.5532C69.485 74.4385 65.3617 70.6534 65.3617 66.001C65.3617 61.3485 69.485 57.5635 74.5532 57.5635H77.617V51.001H18.3829V57.5635ZM27.3998 86.6252L29.6975 81.001H66.3027L68.6001 86.6252H27.3998ZM39.8298 63.1885H56.1702C57.8622 63.1885 59.234 64.4477 59.234 66.001C59.234 67.5542 57.8622 68.8135 56.1702 68.8135H39.8298C38.1377 68.8135 36.7659 67.5542 36.7659 66.001C36.7659 64.4477 38.1377 63.1885 39.8298 63.1885Z" fill="white"/>
<path d="M68.4255 0.000976562H27.5745C12.3699 0.000976562 0 11.3562 0 25.3135V78.1885C0 79.7417 1.37178 81.001 3.06383 81.001H13.9041C12.8577 79.3448 12.2553 77.4244 12.2553 75.376V25.3135C12.2553 17.5594 19.1275 11.251 27.5745 11.251H68.4255C76.8725 11.251 83.7447 17.5594 83.7447 25.3135V75.376C83.7447 77.4244 83.1423 79.3448 82.0959 81.001H92.9362C94.6282 81.001 96 79.7417 96 78.1885V25.3135C96 11.3562 83.6301 0.000976562 68.4255 0.000976562Z" fill="white"/>
</g>
<defs>
<clipPath id="clip0">
<rect width="96" height="96" fill="white" transform="translate(0 0.000976562)"/>
</clipPath>
</defs>
</svg>
