<svg width="96" height="96" viewBox="0 0 96 96" fill="none" xmlns="http://www.w3.org/2000/svg">
<g clip-path="url(#clip0)">
<path d="M79.0058 66.998C76.8676 64.6405 74.2909 63.4891 71.0012 63.4891H64.0699L59.5193 59.1033C56.175 61.8446 52.1178 63.4345 47.7316 63.4345C43.6197 63.4345 39.727 62.009 36.5471 59.5419L32.4898 63.4345H25.2761C21.6028 63.4345 18.7519 64.6955 16.504 67.2725C9.97973 74.8382 11.0762 91.012 11.5697 96.0011H84.5977C84.9818 90.9568 85.6397 74.3995 79.0058 66.998Z" fill="white"/>
<path d="M28.7284 32.677C27.4126 33.7735 26.5354 35.5279 26.5354 37.5565C26.5354 40.5719 28.5091 43.0391 31.0311 43.4777C31.5794 48.0282 33.4435 52.0305 36.2396 54.9911C36.8425 55.5941 37.4456 56.1972 38.1035 56.6907C38.926 57.3486 39.8031 57.8968 40.7351 58.3903C42.8185 59.4866 45.121 60.0897 47.5883 60.0897C50.0555 60.0897 52.3584 59.4866 54.4416 58.3903C55.3736 57.8968 56.2508 57.3486 57.0732 56.6907C57.7313 56.1972 58.3342 55.5941 58.9373 54.9911C61.6786 52.0307 63.5975 48.083 64.0909 43.5325C64.1459 43.5325 64.2006 43.5325 64.2554 43.5325C67.1613 43.5325 69.4638 40.846 69.4638 37.5565C69.4638 35.5279 68.5866 33.7735 67.2708 32.677H28.7284Z" fill="white"/>
<path d="M67.62 21.1638C65.9204 15.5167 61.4247 9.76004 55.7228 6.79945V19.6835V21.4379C55.7228 21.5476 55.7228 21.6024 55.7228 21.6572C55.668 22.2603 55.5583 22.8086 55.2844 23.3568C54.5715 24.7275 53.146 25.7143 51.5014 25.7143H50.6242H44.5934C43.0582 25.7143 41.6874 24.8919 40.9748 23.6858C40.6459 23.1923 40.4814 22.6443 40.3718 22.041C40.3169 21.8217 40.3169 21.6572 40.3169 21.4379V19.9028V6.74463C34.6151 9.76004 30.1193 15.5167 28.4197 21.1638L28.036 22.37H24.9109V29.2232H28.3649H33.1896H35.2181H61.6444H63.6181H71.0894V28.8942V22.37H68.0042L67.62 21.1638Z" fill="white"/>
<path d="M44.5732 24.0146H51.4264C52.4133 24.0146 53.2356 23.4664 53.6742 22.644C53.8935 22.2602 54.0032 21.8764 54.0032 21.4378V20.9444V18.9158V5.97698V4.11291V3.40017C54.0032 2.96156 53.8935 2.57778 53.7839 2.194C53.2906 0.933014 52.0296 0.000976562 50.6042 0.000976562H44.5732C43.2573 0.000976562 42.1608 0.987839 42.0512 2.24883C42.0512 2.35848 41.9963 2.46813 41.9963 2.57778V4.11291V5.97698V19.1351V21.2185V21.4378C41.9963 21.9861 42.1608 22.4795 42.4349 22.9181C42.9286 23.576 43.6959 24.0146 44.5732 24.0146Z" fill="white"/>
</g>
<defs>
<clipPath id="clip0">
<rect width="96" height="96" fill="white" transform="translate(0 0.000976562)"/>
</clipPath>
</defs>
</svg>
